# 3ds Max Wavefront OBJ Exporter v0.97b - (c)2007 guruware
# 创建的文件:29.03.2017 14:11:51

mtllib ZITI.mtl

#
# object ZI
#

v  -333.0959 684.8904 -923.8086
v  -333.0959 19.5985 -923.8086
v  332.1960 19.5985 -923.8086
v  332.1960 684.8904 -923.8086
# 4 vertices

vn 0.0000 -0.0000 1.0000
# 1 vertex normals

vt 0.0000 1000.0000 0.0000
vt 0.0000 0.0000 0.0000
vt 1000.0000 0.0000 0.0000
vt 1000.0000 1000.0000 0.0000
# 4 texture coords

g ZI
usemtl wire_088144225
s 1
f 1/1/1 2/2/1 3/3/1 4/4/1 
# 1 polygons

